<svg width="260" height="51" viewBox="0 0 260 51" fill="none" xmlns="http://www.w3.org/2000/svg">
<path d="M50.7538 25.3767C50.7538 23.5178 50.5538 21.7054 50.1742 19.96C49.9765 28.3655 43.3224 32.3172 35.0733 31.9534C29.0484 31.688 21.617 29.6584 17.4902 35.5255C14.6157 39.6117 15.7463 47.5023 20.149 50.2137C21.8358 50.567 23.5842 50.7534 25.3763 50.7534C39.3918 50.7534 50.7538 39.3915 50.7538 25.3767Z" fill="#000F5C"/>
<path d="M31.9799 12.918C33.354 18.3543 37.5808 21.5212 43.1848 20.7996C45.7533 20.4688 48.5354 19.194 48.9195 16.2601C48.9323 16.1608 48.942 16.0609 48.9481 15.9594C45.2083 6.60746 36.0646 0 25.3769 0C23.3218 0 21.323 0.245055 19.4092 0.705848C26.5879 0.577307 30.3344 6.40676 31.9799 12.918Z" fill="#000F5C"/>
<path d="M34.9722 25.5714C31.3159 20.7176 24.2101 19.2901 18.5212 19.427C14.1921 19.5314 8.10561 20.7364 6.80441 15.0408C5.67385 10.0946 11.038 4.74246 14.8559 2.5332C14.132 2.77826 13.4254 3.05714 12.7383 3.36609C5.12586 7.74626 0 15.9631 0 25.3767C0 36.341 6.954 45.6809 16.6915 49.2282C11.5499 44.0587 10.1653 35.1992 15.1934 29.3878C19.7149 24.1627 28.942 24.5731 34.9722 25.5714Z" fill="white"/>
<path d="M19.4966 14.7612C22.7218 12.8991 24.3334 9.65212 23.096 7.50901C21.8586 5.36589 18.2409 5.13814 15.0157 7.00031C11.7904 8.86248 10.1789 12.1094 11.4162 14.2525C12.6536 16.3956 16.2713 16.6234 19.4966 14.7612Z" fill="white"/>
<path d="M68.4753 24.5134C68.4753 26.2392 68.8664 27.7359 69.6484 29.0033C70.4304 30.2438 71.4552 31.1876 72.7226 31.8348C74.017 32.482 75.4328 32.8056 76.9699 32.8056C78.3182 32.8056 79.5047 32.6304 80.5295 32.2798C81.5542 31.9292 82.4711 31.4708 83.2801 30.9045C84.0891 30.3382 84.8037 29.7314 85.4239 29.0842V36.4461C84.2913 37.336 83.0509 38.0372 81.7025 38.5495C80.3542 39.0619 78.6418 39.3181 76.5654 39.3181C74.3002 39.3181 72.2102 38.9675 70.2956 38.2664C68.381 37.5653 66.736 36.554 65.3607 35.2326C63.9854 33.9113 62.9202 32.3472 62.1651 30.5404C61.4101 28.7337 61.0325 26.7246 61.0325 24.5134C61.0325 22.3021 61.4101 20.2931 62.1651 18.4863C62.9202 16.6795 63.9854 15.1155 65.3607 13.7941C66.736 12.4727 68.381 11.4615 70.2956 10.7603C72.2102 10.0592 74.3002 9.70863 76.5654 9.70863C78.6418 9.70863 80.3542 9.96481 81.7025 10.4772C83.0509 10.9895 84.2913 11.6907 85.4239 12.5806V19.9425C84.8037 19.2953 84.0891 18.6886 83.2801 18.1222C82.4711 17.529 81.5542 17.0705 80.5295 16.7469C79.5047 16.3964 78.3182 16.2211 76.9699 16.2211C75.4328 16.2211 74.017 16.5447 72.7226 17.1919C71.4552 17.8391 70.4304 18.7829 69.6484 20.0234C68.8664 21.2639 68.4753 22.7605 68.4753 24.5134ZM89.3141 29.3674C89.3141 27.3988 89.7725 25.6864 90.6894 24.2302C91.6063 22.774 92.8737 21.6414 94.4917 20.8324C96.1097 20.0234 97.93 19.6189 99.9525 19.6189C101.975 19.6189 103.782 20.0234 105.373 20.8324C106.991 21.6414 108.258 22.774 109.175 24.2302C110.119 25.6864 110.591 27.3988 110.591 29.3674C110.591 31.309 110.119 33.0079 109.175 34.4641C108.258 35.9203 106.991 37.0529 105.373 37.8619C103.782 38.6709 101.975 39.0754 99.9525 39.0754C97.93 39.0754 96.1097 38.6709 94.4917 37.8619C92.8737 37.0529 91.6063 35.9203 90.6894 34.4641C89.7725 33.0079 89.3141 31.309 89.3141 29.3674ZM95.5839 29.3674C95.5839 30.3382 95.7861 31.1741 96.1906 31.8753C96.5951 32.5495 97.121 33.0753 97.7682 33.4528C98.4154 33.8304 99.1435 34.0191 99.9525 34.0191C100.735 34.0191 101.449 33.8304 102.096 33.4528C102.77 33.0753 103.296 32.5495 103.674 31.8753C104.078 31.1741 104.281 30.3382 104.281 29.3674C104.281 28.3966 104.078 27.5606 103.674 26.8595C103.296 26.1583 102.77 25.619 102.096 25.2415C101.449 24.8639 100.735 24.6752 99.9525 24.6752C99.1435 24.6752 98.4154 24.8639 97.7682 25.2415C97.121 25.619 96.5951 26.1583 96.1906 26.8595C95.7861 27.5606 95.5839 28.3966 95.5839 29.3674ZM126.321 27.3449C126.321 26.2392 126.105 25.3898 125.673 24.7965C125.269 24.2032 124.581 23.9066 123.61 23.9066C122.963 23.9066 122.397 24.0414 121.912 24.3111C121.426 24.5808 121.049 24.9718 120.779 25.4842C120.509 25.9965 120.374 26.6168 120.374 27.3449V38.6709H114.226V20.0639H120.374V22.8549C120.914 21.8302 121.642 21.0347 122.559 20.4684C123.503 19.9021 124.662 19.6189 126.037 19.6189C128.357 19.6189 130.042 20.2391 131.094 21.4796C132.145 22.7201 132.671 24.4594 132.671 26.6977V38.6709H126.321V27.3449ZM138.504 31.9157C139.448 32.6978 140.297 33.318 141.052 33.7764C141.834 34.2079 142.522 34.518 143.115 34.7068C143.709 34.8686 144.221 34.9495 144.652 34.9495C145.273 34.9495 145.731 34.8147 146.028 34.545C146.324 34.2753 146.473 33.9248 146.473 33.4933C146.473 33.0888 146.351 32.7517 146.109 32.482C145.866 32.1854 145.448 31.9022 144.855 31.6326C144.288 31.3629 143.506 31.0798 142.509 30.7831C141.619 30.4595 140.769 30.082 139.96 29.6505C139.178 29.1921 138.531 28.5853 138.019 27.8303C137.506 27.0752 137.25 26.1044 137.25 24.9179C137.25 23.7853 137.547 22.8279 138.14 22.0459C138.76 21.2639 139.583 20.6706 140.607 20.2661C141.659 19.8616 142.859 19.6594 144.207 19.6594C145.286 19.6594 146.284 19.7807 147.201 20.0234C148.145 20.2661 149.021 20.5897 149.83 20.9942C150.666 21.3987 151.448 21.8706 152.176 22.41L149.992 26.3741C149.21 25.646 148.32 25.0527 147.322 24.5943C146.324 24.1089 145.407 23.8662 144.571 23.8662C144.005 23.8662 143.574 23.974 143.277 24.1898C143.007 24.4055 142.873 24.6886 142.873 25.0392C142.873 25.4437 143.034 25.7808 143.358 26.0505C143.709 26.3201 144.194 26.5763 144.814 26.819C145.461 27.0348 146.243 27.3179 147.16 27.6685C148.131 28.019 149.021 28.4235 149.83 28.882C150.666 29.3404 151.327 29.9202 151.812 30.6213C152.324 31.3225 152.581 32.2528 152.581 33.4124C152.581 35.4079 151.96 36.9181 150.72 37.9428C149.506 38.9406 147.781 39.4395 145.542 39.4395C144.221 39.4395 142.98 39.2776 141.821 38.954C140.688 38.6574 139.637 38.2529 138.666 37.7405C137.695 37.2012 136.792 36.6079 135.956 35.9607L138.504 31.9157ZM162.331 31.3899C162.331 32.4686 162.534 33.318 162.938 33.9382C163.343 34.5315 164.044 34.8281 165.041 34.8281C165.716 34.8281 166.282 34.6933 166.74 34.4236C167.226 34.154 167.603 33.763 167.873 33.2506C168.143 32.7382 168.277 32.118 168.277 31.3899V20.0639H174.385V38.6709H168.277V35.8798C167.711 36.8776 166.97 37.6731 166.053 38.2664C165.136 38.8327 163.99 39.1158 162.614 39.1158C160.295 39.1158 158.596 38.4956 157.518 37.2551C156.466 35.9877 155.94 34.2484 155.94 32.0371V20.0639H162.331V31.3899ZM217.397 31.3899C217.397 32.4686 217.599 33.318 218.004 33.9382C218.408 34.5315 219.11 34.8281 220.107 34.8281C220.781 34.8281 221.348 34.6933 221.806 34.4236C222.292 34.154 222.669 33.763 222.939 33.2506C223.208 32.7382 223.343 32.118 223.343 31.3899V20.0639H229.451V38.6709H223.343V35.8798C222.777 36.8776 222.035 37.6731 221.119 38.2664C220.202 38.8327 219.056 39.1158 217.68 39.1158C215.361 39.1158 213.662 38.4956 212.584 37.2551C211.532 35.9877 211.006 34.2484 211.006 32.0371V20.0639H217.397V31.3899ZM240.34 7.11982V38.6709H234.232V7.11982H240.34ZM255.549 29.3674C255.549 31.4438 255.118 33.2101 254.255 34.6663C253.419 36.0956 252.327 37.1877 250.979 37.9428C249.657 38.6979 248.228 39.0754 246.691 39.0754C245.154 39.0754 243.778 38.6844 242.565 37.9023C241.351 37.1203 240.394 36.0012 239.693 34.545C238.992 33.0888 238.641 31.3629 238.641 29.3674C238.641 27.3449 238.992 25.619 239.693 24.1898C240.394 22.7336 241.351 21.6144 242.565 20.8324C243.778 20.0504 245.154 19.6594 246.691 19.6594C248.228 19.6594 249.657 20.0369 250.979 20.792C252.327 21.547 253.419 22.6392 254.255 24.0684C255.118 25.4976 255.549 27.264 255.549 29.3674ZM249.118 29.3674C249.118 28.3966 248.916 27.5606 248.511 26.8595C248.107 26.1314 247.567 25.5786 246.893 25.201C246.219 24.7965 245.477 24.5943 244.668 24.5943C243.967 24.5943 243.28 24.783 242.605 25.1606C241.958 25.5381 241.419 26.0909 240.987 26.819C240.556 27.5202 240.34 28.3696 240.34 29.3674C240.34 30.3651 240.556 31.2281 240.987 31.9562C241.419 32.6573 241.958 33.1967 242.605 33.5742C243.28 33.9517 243.967 34.1405 244.668 34.1405C245.477 34.1405 246.219 33.9517 246.893 33.5742C247.567 33.1697 248.107 32.6169 248.511 31.9157C248.916 31.1876 249.118 30.3382 249.118 29.3674Z" fill="#000F5C"/>
<path d="M181.715 26.819V20.6706H203.113V26.819H181.715ZM198.825 10.3558H205.661V38.6709H198.825V10.3558ZM179.814 10.3558H186.65V38.6709H179.814V10.3558Z" fill="white"/>
</svg>
