<svg width="188" height="35" viewBox="0 0 188 35" fill="none" xmlns="http://www.w3.org/2000/svg">
<path d="M35.0002 17.5C35.0002 16.218 34.8623 14.9682 34.6005 13.7645C34.4642 19.5611 29.8755 22.2862 24.1868 22.0353C20.032 21.8523 14.9073 20.4527 12.0614 24.4986C10.0791 27.3165 10.8587 32.758 13.8949 34.6278C15.0581 34.8714 16.2639 35 17.4997 35C27.1649 35 35.0002 27.1647 35.0002 17.5Z" fill="white"/>
<path d="M22.0536 8.90837C23.0012 12.6573 25.9161 14.8412 29.7806 14.3436C31.5519 14.1155 33.4704 13.2363 33.7353 11.2131C33.7442 11.1447 33.7509 11.0757 33.755 11.0057C31.1761 4.55656 24.8705 0 17.5002 0C16.0829 0 14.7046 0.168992 13.3848 0.486759C18.3353 0.398116 20.9189 4.41816 22.0536 8.90837Z" fill="white"/>
<path d="M24.1171 17.6343C21.5957 14.2871 16.6955 13.3027 12.7724 13.397C9.78702 13.4691 5.58969 14.3 4.69238 10.3723C3.91273 6.96134 7.6119 3.27047 10.2448 1.74695C9.74555 1.91594 9.25827 2.10826 8.78447 2.32131C3.53484 5.34192 0 11.0083 0 17.5C0 25.0611 4.79554 31.502 11.5106 33.9482C7.96491 30.3833 7.01006 24.2737 10.4775 20.2661C13.5956 16.6628 19.9587 16.9459 24.1171 17.6343Z" fill="#266FF2"/>
<path d="M13.4449 10.1795C15.6691 8.89534 16.7804 6.65623 15.9271 5.17832C15.0738 3.70041 12.5791 3.54335 10.3549 4.82752C8.13069 6.11168 7.01937 8.35079 7.87267 9.82871C8.72597 11.3066 11.2208 11.4637 13.4449 10.1795Z" fill="#266FF2"/>
<path d="M47.54 16.5C47.54 17.78 47.83 18.89 48.41 19.83C48.99 20.75 49.75 21.45 50.69 21.93C51.65 22.41 52.7 22.65 53.84 22.65C54.84 22.65 55.72 22.52 56.48 22.26C57.24 22 57.92 21.66 58.52 21.24C59.12 20.82 59.65 20.37 60.11 19.89V25.35C59.27 26.01 58.35 26.53 57.35 26.91C56.35 27.29 55.08 27.48 53.54 27.48C51.86 27.48 50.31 27.22 48.89 26.7C47.47 26.18 46.25 25.43 45.23 24.45C44.21 23.47 43.42 22.31 42.86 20.97C42.3 19.63 42.02 18.14 42.02 16.5C42.02 14.86 42.3 13.37 42.86 12.03C43.42 10.69 44.21 9.53 45.23 8.55C46.25 7.57 47.47 6.82 48.89 6.3C50.31 5.78 51.86 5.52 53.54 5.52C55.08 5.52 56.35 5.71 57.35 6.09C58.35 6.47 59.27 6.99 60.11 7.65V13.11C59.65 12.63 59.12 12.18 58.52 11.76C57.92 11.32 57.24 10.98 56.48 10.74C55.72 10.48 54.84 10.35 53.84 10.35C52.7 10.35 51.65 10.59 50.69 11.07C49.75 11.55 48.99 12.25 48.41 13.17C47.83 14.09 47.54 15.2 47.54 16.5ZM62.9952 20.1C62.9952 18.64 63.3352 17.37 64.0152 16.29C64.6952 15.21 65.6352 14.37 66.8352 13.77C68.0352 13.17 69.3852 12.87 70.8852 12.87C72.3852 12.87 73.7252 13.17 74.9052 13.77C76.1052 14.37 77.0452 15.21 77.7252 16.29C78.4252 17.37 78.7752 18.64 78.7752 20.1C78.7752 21.54 78.4252 22.8 77.7252 23.88C77.0452 24.96 76.1052 25.8 74.9052 26.4C73.7252 27 72.3852 27.3 70.8852 27.3C69.3852 27.3 68.0352 27 66.8352 26.4C65.6352 25.8 64.6952 24.96 64.0152 23.88C63.3352 22.8 62.9952 21.54 62.9952 20.1ZM67.6452 20.1C67.6452 20.82 67.7952 21.44 68.0952 21.96C68.3952 22.46 68.7852 22.85 69.2652 23.13C69.7452 23.41 70.2852 23.55 70.8852 23.55C71.4652 23.55 71.9952 23.41 72.4752 23.13C72.9752 22.85 73.3652 22.46 73.6452 21.96C73.9452 21.44 74.0952 20.82 74.0952 20.1C74.0952 19.38 73.9452 18.76 73.6452 18.24C73.3652 17.72 72.9752 17.32 72.4752 17.04C71.9952 16.76 71.4652 16.62 70.8852 16.62C70.2852 16.62 69.7452 16.76 69.2652 17.04C68.7852 17.32 68.3952 17.72 68.0952 18.24C67.7952 18.76 67.6452 19.38 67.6452 20.1ZM90.4412 18.6C90.4412 17.78 90.2812 17.15 89.9612 16.71C89.6612 16.27 89.1512 16.05 88.4312 16.05C87.9512 16.05 87.5312 16.15 87.1712 16.35C86.8112 16.55 86.5312 16.84 86.3312 17.22C86.1312 17.6 86.0312 18.06 86.0312 18.6V27H81.4712V13.2H86.0312V15.27C86.4312 14.51 86.9712 13.92 87.6512 13.5C88.3512 13.08 89.2112 12.87 90.2312 12.87C91.9512 12.87 93.2012 13.33 93.9812 14.25C94.7612 15.17 95.1512 16.46 95.1512 18.12V27H90.4412V18.6ZM99.477 21.99C100.177 22.57 100.807 23.03 101.367 23.37C101.947 23.69 102.457 23.92 102.897 24.06C103.337 24.18 103.717 24.24 104.037 24.24C104.497 24.24 104.837 24.14 105.057 23.94C105.277 23.74 105.387 23.48 105.387 23.16C105.387 22.86 105.297 22.61 105.117 22.41C104.937 22.19 104.627 21.98 104.187 21.78C103.767 21.58 103.187 21.37 102.447 21.15C101.787 20.91 101.157 20.63 100.557 20.31C99.977 19.97 99.497 19.52 99.117 18.96C98.737 18.4 98.547 17.68 98.547 16.8C98.547 15.96 98.767 15.25 99.207 14.67C99.667 14.09 100.277 13.65 101.037 13.35C101.817 13.05 102.707 12.9 103.707 12.9C104.507 12.9 105.247 12.99 105.927 13.17C106.627 13.35 107.277 13.59 107.877 13.89C108.497 14.19 109.077 14.54 109.617 14.94L107.997 17.88C107.417 17.34 106.757 16.9 106.017 16.56C105.277 16.2 104.597 16.02 103.977 16.02C103.557 16.02 103.237 16.1 103.017 16.26C102.817 16.42 102.717 16.63 102.717 16.89C102.717 17.19 102.837 17.44 103.077 17.64C103.337 17.84 103.697 18.03 104.157 18.21C104.637 18.37 105.217 18.58 105.897 18.84C106.617 19.1 107.277 19.4 107.877 19.74C108.497 20.08 108.987 20.51 109.347 21.03C109.727 21.55 109.917 22.24 109.917 23.1C109.917 24.58 109.457 25.7 108.537 26.46C107.637 27.2 106.357 27.57 104.697 27.57C103.717 27.57 102.797 27.45 101.937 27.21C101.097 26.99 100.317 26.69 99.597 26.31C98.877 25.91 98.207 25.47 97.587 24.99L99.477 21.99ZM117.149 21.6C117.149 22.4 117.299 23.03 117.599 23.49C117.899 23.93 118.419 24.15 119.159 24.15C119.659 24.15 120.079 24.05 120.419 23.85C120.779 23.65 121.059 23.36 121.259 22.98C121.459 22.6 121.559 22.14 121.559 21.6V13.2H126.089V27H121.559V24.93C121.139 25.67 120.589 26.26 119.909 26.7C119.229 27.12 118.379 27.33 117.359 27.33C115.639 27.33 114.379 26.87 113.579 25.95C112.799 25.01 112.409 23.72 112.409 22.08V13.2H117.149V21.6ZM157.989 21.6C157.989 22.4 158.139 23.03 158.439 23.49C158.739 23.93 159.259 24.15 159.999 24.15C160.499 24.15 160.919 24.05 161.259 23.85C161.619 23.65 161.899 23.36 162.099 22.98C162.299 22.6 162.399 22.14 162.399 21.6V13.2H166.929V27H162.399V24.93C161.979 25.67 161.429 26.26 160.749 26.7C160.069 27.12 159.219 27.33 158.199 27.33C156.479 27.33 155.219 26.87 154.419 25.95C153.639 25.01 153.249 23.72 153.249 22.08V13.2H157.989V21.6ZM175.004 3.6V27H170.474V3.6H175.004ZM186.284 20.1C186.284 21.64 185.964 22.95 185.324 24.03C184.704 25.09 183.894 25.9 182.894 26.46C181.914 27.02 180.854 27.3 179.714 27.3C178.574 27.3 177.554 27.01 176.654 26.43C175.754 25.85 175.044 25.02 174.524 23.94C174.004 22.86 173.744 21.58 173.744 20.1C173.744 18.6 174.004 17.32 174.524 16.26C175.044 15.18 175.754 14.35 176.654 13.77C177.554 13.19 178.574 12.9 179.714 12.9C180.854 12.9 181.914 13.18 182.894 13.74C183.894 14.3 184.704 15.11 185.324 16.17C185.964 17.23 186.284 18.54 186.284 20.1ZM181.514 20.1C181.514 19.38 181.364 18.76 181.064 18.24C180.764 17.7 180.364 17.29 179.864 17.01C179.364 16.71 178.814 16.56 178.214 16.56C177.694 16.56 177.184 16.7 176.684 16.98C176.204 17.26 175.804 17.67 175.484 18.21C175.164 18.73 175.004 19.36 175.004 20.1C175.004 20.84 175.164 21.48 175.484 22.02C175.804 22.54 176.204 22.94 176.684 23.22C177.184 23.5 177.694 23.64 178.214 23.64C178.814 23.64 179.364 23.5 179.864 23.22C180.364 22.92 180.764 22.51 181.064 21.99C181.364 21.45 181.514 20.82 181.514 20.1Z" fill="white"/>
<path d="M131.525 18.21V13.65H147.395V18.21H131.525ZM144.215 6H149.285V27H144.215V6ZM130.115 6H135.185V27H130.115V6Z" fill="#266FF2"/>
</svg>
