<svg width="188" height="35" viewBox="0 0 188 35" fill="none" xmlns="http://www.w3.org/2000/svg">
<path d="M35.0002 17.5C35.0002 16.218 34.8623 14.9682 34.6005 13.7645C34.4642 19.5611 29.8755 22.2862 24.1868 22.0353C20.032 21.8523 14.9073 20.4527 12.0614 24.4986C10.0791 27.3165 10.8587 32.758 13.8949 34.6278C15.0581 34.8714 16.2639 35 17.4997 35C27.1649 35 35.0002 27.1647 35.0002 17.5Z" fill="#000F5C"/>
<path d="M22.0536 8.90837C23.0012 12.6573 25.9161 14.8412 29.7806 14.3436C31.5519 14.1155 33.4704 13.2363 33.7353 11.2131C33.7442 11.1447 33.7509 11.0757 33.755 11.0057C31.1761 4.55656 24.8705 0 17.5002 0C16.0829 0 14.7046 0.168992 13.3848 0.486759C18.3353 0.398116 20.9189 4.41816 22.0536 8.90837Z" fill="#000F5C"/>
<path d="M24.1171 17.6343C21.5957 14.2871 16.6955 13.3027 12.7724 13.397C9.78702 13.4691 5.58969 14.3 4.69238 10.3723C3.91273 6.96134 7.6119 3.27047 10.2448 1.74695C9.74555 1.91594 9.25827 2.10826 8.78447 2.32131C3.53484 5.34192 0 11.0083 0 17.5C0 25.0611 4.79554 31.502 11.5106 33.9482C7.96491 30.3833 7.01006 24.2737 10.4775 20.2661C13.5956 16.6628 19.9587 16.9459 24.1171 17.6343Z" fill="#266FF2"/>
<path d="M13.4445 10.1795C15.6686 8.89534 16.78 6.65623 15.9267 5.17832C15.0734 3.70041 12.5786 3.54335 10.3544 4.82752C8.1302 6.11168 7.01888 8.35079 7.87218 9.82871C8.72548 11.3066 11.2203 11.4637 13.4445 10.1795Z" fill="#266FF2"/>
<path d="M47.54 16.5C47.54 17.78 47.83 18.89 48.41 19.83C48.99 20.75 49.75 21.45 50.69 21.93C51.65 22.41 52.7 22.65 53.84 22.65C54.84 22.65 55.72 22.52 56.48 22.26C57.24 22 57.92 21.66 58.52 21.24C59.12 20.82 59.65 20.37 60.11 19.89V25.35C59.27 26.01 58.35 26.53 57.35 26.91C56.35 27.29 55.08 27.48 53.54 27.48C51.86 27.48 50.31 27.22 48.89 26.7C47.47 26.18 46.25 25.43 45.23 24.45C44.21 23.47 43.42 22.31 42.86 20.97C42.3 19.63 42.02 18.14 42.02 16.5C42.02 14.86 42.3 13.37 42.86 12.03C43.42 10.69 44.21 9.53 45.23 8.55C46.25 7.57 47.47 6.82 48.89 6.3C50.31 5.78 51.86 5.52 53.54 5.52C55.08 5.52 56.35 5.71 57.35 6.09C58.35 6.47 59.27 6.99 60.11 7.65V13.11C59.65 12.63 59.12 12.18 58.52 11.76C57.92 11.32 57.24 10.98 56.48 10.74C55.72 10.48 54.84 10.35 53.84 10.35C52.7 10.35 51.65 10.59 50.69 11.07C49.75 11.55 48.99 12.25 48.41 13.17C47.83 14.09 47.54 15.2 47.54 16.5ZM62.9952 20.1C62.9952 18.64 63.3352 17.37 64.0152 16.29C64.6952 15.21 65.6352 14.37 66.8352 13.77C68.0352 13.17 69.3852 12.87 70.8852 12.87C72.3852 12.87 73.7252 13.17 74.9052 13.77C76.1052 14.37 77.0452 15.21 77.7252 16.29C78.4252 17.37 78.7752 18.64 78.7752 20.1C78.7752 21.54 78.4252 22.8 77.7252 23.88C77.0452 24.96 76.1052 25.8 74.9052 26.4C73.7252 27 72.3852 27.3 70.8852 27.3C69.3852 27.3 68.0352 27 66.8352 26.4C65.6352 25.8 64.6952 24.96 64.0152 23.88C63.3352 22.8 62.9952 21.54 62.9952 20.1ZM67.6452 20.1C67.6452 20.82 67.7952 21.44 68.0952 21.96C68.3952 22.46 68.7852 22.85 69.2652 23.13C69.7452 23.41 70.2852 23.55 70.8852 23.55C71.4652 23.55 71.9952 23.41 72.4752 23.13C72.9752 22.85 73.3652 22.46 73.6452 21.96C73.9452 21.44 74.0952 20.82 74.0952 20.1C74.0952 19.38 73.9452 18.76 73.6452 18.24C73.3652 17.72 72.9752 17.32 72.4752 17.04C71.9952 16.76 71.4652 16.62 70.8852 16.62C70.2852 16.62 69.7452 16.76 69.2652 17.04C68.7852 17.32 68.3952 17.72 68.0952 18.24C67.7952 18.76 67.6452 19.38 67.6452 20.1ZM90.4705 18.6C90.4705 17.78 90.3105 17.15 89.9905 16.71C89.6905 16.27 89.1805 16.05 88.4605 16.05C87.9805 16.05 87.5605 16.15 87.2005 16.35C86.8405 16.55 86.5605 16.84 86.3605 17.22C86.1605 17.6 86.0605 18.06 86.0605 18.6V27H81.5005V13.2H86.0605V15.27C86.4605 14.51 87.0005 13.92 87.6805 13.5C88.3805 13.08 89.2405 12.87 90.2605 12.87C91.9805 12.87 93.2305 13.33 94.0105 14.25C94.7905 15.17 95.1805 16.46 95.1805 18.12V27H90.4705V18.6ZM99.5063 21.99C100.206 22.57 100.836 23.03 101.396 23.37C101.976 23.69 102.486 23.92 102.926 24.06C103.366 24.18 103.746 24.24 104.066 24.24C104.526 24.24 104.866 24.14 105.086 23.94C105.306 23.74 105.416 23.48 105.416 23.16C105.416 22.86 105.326 22.61 105.146 22.41C104.966 22.19 104.656 21.98 104.216 21.78C103.796 21.58 103.216 21.37 102.476 21.15C101.816 20.91 101.186 20.63 100.586 20.31C100.006 19.97 99.5263 19.52 99.1463 18.96C98.7663 18.4 98.5763 17.68 98.5763 16.8C98.5763 15.96 98.7963 15.25 99.2363 14.67C99.6963 14.09 100.306 13.65 101.066 13.35C101.846 13.05 102.736 12.9 103.736 12.9C104.536 12.9 105.276 12.99 105.956 13.17C106.656 13.35 107.306 13.59 107.906 13.89C108.526 14.19 109.106 14.54 109.646 14.94L108.026 17.88C107.446 17.34 106.786 16.9 106.046 16.56C105.306 16.2 104.626 16.02 104.006 16.02C103.586 16.02 103.266 16.1 103.046 16.26C102.846 16.42 102.746 16.63 102.746 16.89C102.746 17.19 102.866 17.44 103.106 17.64C103.366 17.84 103.726 18.03 104.186 18.21C104.666 18.37 105.246 18.58 105.926 18.84C106.646 19.1 107.306 19.4 107.906 19.74C108.526 20.08 109.016 20.51 109.376 21.03C109.756 21.55 109.946 22.24 109.946 23.1C109.946 24.58 109.486 25.7 108.566 26.46C107.666 27.2 106.396 27.57 104.756 27.57C103.756 27.57 102.826 27.45 101.966 27.21C101.126 26.99 100.346 26.69 99.6263 26.31C98.9063 25.91 98.2363 25.47 97.6163 24.99L99.5063 21.99ZM117.178 21.6C117.178 22.4 117.328 23.03 117.628 23.49C117.928 23.93 118.448 24.15 119.188 24.15C119.688 24.15 120.108 24.05 120.448 23.85C120.808 23.65 121.088 23.36 121.288 22.98C121.488 22.6 121.588 22.14 121.588 21.6V13.2H126.118V27H121.588V24.93C121.168 25.67 120.618 26.26 119.938 26.7C119.258 27.12 118.408 27.33 117.388 27.33C115.668 27.33 114.408 26.87 113.608 25.95C112.828 25.01 112.438 23.72 112.438 22.08V13.2H117.178V21.6ZM158.018 21.6C158.018 22.4 158.168 23.03 158.468 23.49C158.768 23.93 159.288 24.15 160.028 24.15C160.528 24.15 160.948 24.05 161.288 23.85C161.648 23.65 161.928 23.36 162.128 22.98C162.328 22.6 162.428 22.14 162.428 21.6V13.2H166.958V27H162.428V24.93C162.008 25.67 161.458 26.26 160.778 26.7C160.098 27.12 159.248 27.33 158.228 27.33C156.508 27.33 155.248 26.87 154.448 25.95C153.668 25.01 153.278 23.72 153.278 22.08V13.2H158.018V21.6ZM175.034 3.6V27H170.504V3.6H175.034ZM186.314 20.1C186.314 21.64 185.994 22.95 185.354 24.03C184.734 25.09 183.924 25.9 182.924 26.46C181.944 27.02 180.884 27.3 179.744 27.3C178.604 27.3 177.584 27.01 176.684 26.43C175.784 25.85 175.074 25.02 174.554 23.94C174.034 22.86 173.774 21.58 173.774 20.1C173.774 18.6 174.034 17.32 174.554 16.26C175.074 15.18 175.784 14.35 176.684 13.77C177.584 13.19 178.604 12.9 179.744 12.9C180.884 12.9 181.944 13.18 182.924 13.74C183.924 14.3 184.734 15.11 185.354 16.17C185.994 17.23 186.314 18.54 186.314 20.1ZM181.544 20.1C181.544 19.38 181.394 18.76 181.094 18.24C180.794 17.7 180.394 17.29 179.894 17.01C179.394 16.71 178.844 16.56 178.244 16.56C177.724 16.56 177.214 16.7 176.714 16.98C176.234 17.26 175.834 17.67 175.514 18.21C175.194 18.73 175.034 19.36 175.034 20.1C175.034 20.84 175.194 21.48 175.514 22.02C175.834 22.54 176.234 22.94 176.714 23.22C177.214 23.5 177.724 23.64 178.244 23.64C178.844 23.64 179.394 23.5 179.894 23.22C180.394 22.92 180.794 22.51 181.094 21.99C181.394 21.45 181.544 20.82 181.544 20.1Z" fill="#000F5C"/>
<path d="M131.554 18.21V13.65H147.454V18.21H131.554ZM144.244 6H149.314V27H144.244V6ZM130.144 6H135.214V27H130.144V6Z" fill="#266FF2"/>
</svg>
