<svg width="26" height="30" viewBox="0 0 26 30" fill="none" xmlns="http://www.w3.org/2000/svg">
<path d="M23.0131 14.0804C22.6361 14.0804 22.2756 14.1371 21.9432 14.2394C21.5755 13.2534 20.4317 12.5322 19.0806 12.5322C18.692 12.5322 18.3208 12.5925 17.98 12.7009C17.5827 11.7546 16.4638 11.0705 15.1481 11.0705C14.8176 11.0705 14.4999 11.1143 14.2025 11.1939V8.66543C14.2025 7.34854 12.8626 6.2771 11.2156 6.2771C9.56852 6.2771 8.22858 7.34849 8.22858 8.66543V18.9959L7.06195 17.6113L7.03487 17.5843C5.89159 16.448 3.88028 16.1955 2.35647 16.997C1.55969 17.4162 1.01986 18.0591 0.836474 18.8074C0.654376 19.5505 0.846681 20.3034 1.378 20.9293L6.57731 27.4823L6.5978 27.5072C7.93862 29.0681 10.1529 30 12.5212 30H18.3564C22.5712 30 26.0001 27.2582 26.0001 23.8882V16.4688C26.0001 15.1518 24.6602 14.0804 23.0131 14.0804ZM23.9587 23.8882C23.9587 26.3582 21.4455 28.3677 18.3564 28.3677H12.5212C10.8316 28.3677 9.25162 27.7052 8.29077 26.5948L3.09276 20.0435L3.07227 20.0186C2.8454 19.7545 2.76293 19.4359 2.83996 19.1214C2.91706 18.807 3.14386 18.5368 3.47866 18.3608C4.10838 18.0295 4.93619 18.1268 5.42042 18.5842L10.2702 24.3406V8.66549C10.2702 8.24865 10.6944 7.90946 11.2158 7.90946C11.7372 7.90946 12.1613 8.2486 12.1613 8.66549V16.8213H14.2028V13.4589C14.2028 13.042 14.6269 12.7028 15.1483 12.7028C15.6697 12.7028 16.0938 13.042 16.0938 13.4589V16.8213H18.1353V14.9205C18.1353 14.5036 18.5594 14.1644 19.0808 14.1644C19.6022 14.1644 20.0263 14.5036 20.0263 14.9205V16.8213H22.0678V16.5331V16.4687C22.0678 16.0518 22.4919 15.7126 23.0133 15.7126C23.5347 15.7126 23.9589 16.0518 23.9589 16.4687V23.8882H23.9587Z" fill="#000F5C"/>
<path d="M12.9379 0H10.2578V3.57154H12.9379V0Z" fill="#266FF2"/>
<path d="M18.5938 1.52235L15.5928 4.15527L17.9732 5.88992L20.9742 3.25699L18.5938 1.52235Z" fill="#266FF2"/>
<path d="M23.439 7.10543L19.0029 7.4353L19.3012 9.99941L23.7373 9.66954L23.439 7.10543Z" fill="#266FF2"/>
<path d="M5.14114 1.51951L2.76074 3.25415L5.76181 5.88708L8.14221 4.15243L5.14114 1.51951Z" fill="#266FF2"/>
<path d="M0.298235 7.1063L0 9.67041L4.43611 10.0003L4.73435 7.43617L0.298235 7.1063Z" fill="#266FF2"/>
</svg>
