<svg width="26" height="26" viewBox="0 0 26 26" fill="none" xmlns="http://www.w3.org/2000/svg">
<path d="M6.7327 22.0606C5.29319 22.8872 3.67059 23.1836 2.70976 23.29C2.81613 22.3291 3.11258 20.7065 3.93826 19.2662C4.1545 18.8904 4.02458 18.4108 3.64879 18.1946C3.26952 17.9775 2.79259 18.1092 2.57723 18.4849C1.09849 21.064 1.08105 24.0093 1.08105 24.134C1.08105 24.5673 1.43243 24.9187 1.86576 24.9187C1.99044 24.9187 4.93572 24.9012 7.51479 23.4225C7.89058 23.2063 8.02049 22.7276 7.80426 22.3509C7.58977 21.9752 7.1111 21.8444 6.7327 22.0606Z" fill="#000F5C"/>
<path d="M25.9989 1.9051C26.0085 1.38981 25.8141 0.906774 25.4514 0.544936C25.0896 0.183099 24.5664 0.00435949 24.0938 0C21.9211 0.0409792 16.0602 0.664386 10.5149 5.64205C9.52617 5.25755 8.0361 4.68645 6.90525 4.83206C5.24167 5.04567 2.78378 7.30912 0.376473 9.72428C0.0573585 10.0443 -0.0699386 10.4977 0.0373049 10.9371C0.143677 11.3783 0.466279 11.7244 0.89874 11.863L4.72637 13.0924C4.43778 13.619 4.15354 14.1579 3.87889 14.7264C3.53362 15.4413 3.6801 16.3001 4.24334 16.8616L9.13731 21.7556C9.49653 22.1157 9.97782 22.3058 10.4635 22.3058C10.7381 22.3058 11.0154 22.2456 11.2735 22.1209C11.8419 21.8463 12.3808 21.562 12.9057 21.2743L14.1359 25.1011C14.2745 25.5335 14.6207 25.8561 15.0627 25.9634C15.1647 25.9878 15.2676 26 15.3705 26C15.7062 26 16.0297 25.8683 16.2755 25.6233C18.6907 23.216 20.9541 20.759 21.1669 19.0963C21.3142 17.955 20.7414 16.4736 20.3569 15.4849C25.3337 9.93964 25.958 4.07874 25.9989 1.9051ZM1.81162 10.509C3.08895 9.23689 5.86333 6.54883 7.10491 6.38927C7.65857 6.31865 8.52785 6.58109 9.26199 6.84702C7.96548 8.18712 6.70645 9.79316 5.53288 11.7035L1.81162 10.509ZM10.5908 20.7076C10.48 20.7616 10.3379 20.7372 10.2472 20.6465L5.3524 15.7517C5.26259 15.6619 5.23731 15.5207 5.29223 15.4082C11.3877 2.78223 21.2471 1.62435 24.1244 1.57029H24.1313C24.2351 1.57029 24.3031 1.6165 24.3432 1.65661C24.3763 1.68974 24.433 1.76298 24.4313 1.87632C24.3755 4.75359 23.2167 14.613 10.5908 20.7076ZM19.6105 18.8958C19.451 20.1365 16.7629 22.9117 15.4908 24.1882L14.2946 20.4678C16.2067 19.2942 17.8127 18.0343 19.1528 16.7378C19.4196 17.4711 19.682 18.3386 19.6105 18.8958Z" fill="#000F5C"/>
<path d="M20.0868 10.571C21.3703 9.2867 21.3703 7.19764 20.0868 5.91333C18.8418 4.67 16.6725 4.67 15.4292 5.91333C14.8075 6.53499 14.4648 7.36242 14.4648 8.24217C14.4648 9.12191 14.8084 9.94935 15.4292 10.571C16.0508 11.1927 16.8783 11.5353 17.758 11.5353C18.6377 11.5353 19.4643 11.1927 20.0868 10.571ZM18.976 9.46108C18.3247 10.1133 17.1887 10.1133 16.5391 9.46108C16.213 9.13586 16.0334 8.70253 16.0334 8.24217C16.0334 7.78181 16.213 7.34935 16.5391 7.02326C16.8643 6.69804 17.2968 6.51843 17.7571 6.51843C18.2166 6.51843 18.65 6.69804 18.9752 7.02326C19.6483 7.69549 19.6483 8.78885 18.976 9.46108Z" fill="#000F5C"/>
</svg>
