<svg width="26" height="26" viewBox="0 0 26 26" fill="none" xmlns="http://www.w3.org/2000/svg">
<path d="M4.51471 5C5.00986 5 5.41126 4.55228 5.41126 4C5.41126 3.44772 5.00986 3 4.51471 3C4.01956 3 3.61816 3.44772 3.61816 4C3.61816 4.55228 4.01956 5 4.51471 5Z" fill="#000F5C"/>
<path d="M8.10119 4C8.10119 4.55228 7.69976 5 7.20466 5C6.70951 5 6.30811 4.55228 6.30811 4C6.30811 3.44772 6.70951 3 7.20466 3C7.69976 3 8.10119 3.44772 8.10119 4Z" fill="#000F5C"/>
<path d="M9.89419 5C10.3893 5 10.7907 4.55228 10.7907 4C10.7907 3.44772 10.3893 3 9.89419 3C9.39898 3 8.99756 3.44772 8.99756 4C8.99756 4.55228 9.39898 5 9.89419 5Z" fill="#000F5C"/>
<path fill-rule="evenodd" clip-rule="evenodd" d="M9.01387 10.2931C8.65127 9.90262 8.06329 9.90262 7.70069 10.2931C7.33805 10.6836 7.33805 11.3168 7.70069 11.7073L16.9864 21.7073C17.349 22.0978 17.937 22.0978 18.2996 21.7073C18.6622 21.3168 18.6622 20.6836 18.2996 20.2931L17.4574 19.3861C17.6333 19.2398 17.804 19.0836 17.9685 18.9174L20.1353 16.7297C20.3225 16.5407 20.4287 16.2766 20.4287 16.0002C20.4287 15.7238 20.3225 15.4597 20.1353 15.2707L17.9685 13.083C15.866 10.96 12.7782 10.46 10.2115 11.5829L9.01387 10.2931ZM14.8573 16.0002C14.8573 16.1794 14.8354 16.353 14.7944 16.5182L12.5191 14.0679C12.6725 14.0238 12.8337 14.0002 13.0001 14.0002C14.0258 14.0002 14.8573 14.8956 14.8573 16.0002ZM16.6984 14.542C16.5745 14.417 16.4459 14.2995 16.313 14.1897C16.5698 14.7333 16.7144 15.3486 16.7144 16.0002C16.7144 16.6518 16.5698 17.2671 16.313 17.8107C16.4459 17.7009 16.5745 17.5834 16.6984 17.4584L18.1425 16.0002L16.6984 14.542Z" fill="#266FF2"/>
<path d="M7.57654 13.542L5.86475 15.2704C5.67752 15.4594 5.57129 15.7235 5.57129 15.9999C5.57129 16.2763 5.67752 16.5404 5.86475 16.7294L8.03145 18.9171C9.75274 20.6551 12.1344 21.3054 14.3498 20.8679L9.32021 15.4514C9.29737 15.6307 9.28557 15.8138 9.28557 15.9999C9.28557 16.6515 9.43025 17.2668 9.6869 17.8104C9.55412 17.7006 9.42551 17.5831 9.30164 17.4581L7.85752 15.9999L8.87524 14.9722L7.70041 13.707C7.65287 13.6558 7.61155 13.6005 7.57654 13.542Z" fill="#266FF2"/>
<path fill-rule="evenodd" clip-rule="evenodd" d="M1.46467e-08 3C6.55756e-09 1.34315 1.24721 -4.43164e-09 2.78571 -9.8983e-09L23.2143 -8.24859e-08C24.7528 -8.79527e-08 26 1.34315 26 3L26 23C26 24.6569 24.7528 26 23.2143 26L2.78571 26C1.24721 26 1.20381e-07 24.6569 1.12291e-07 23L1.46467e-08 3ZM24.1429 3L24.1429 6L1.85714 6L1.85714 3C1.85714 2.44772 2.27288 2 2.78571 2L23.2143 2C23.7271 2 24.1429 2.44772 24.1429 3ZM24.1429 8L1.85714 8L1.85714 23C1.85714 23.5523 2.27288 24 2.78571 24L23.2143 24C23.7271 24 24.1429 23.5523 24.1429 23L24.1429 8Z" fill="#000F5C"/>
</svg>
