<svg width="16" height="16" viewBox="0 0 16 16" fill="none" xmlns="http://www.w3.org/2000/svg">
<g clip-path="url(#clip0_48_12227)">
<path d="M5.1875 0H2.34375C1.05141 0 0 1.05141 0 2.34375V5.1875C0 6.47984 1.05141 7.53125 2.34375 7.53125H5.1875C6.47984 7.53125 7.53125 6.47984 7.53125 5.1875V2.34375C7.53125 1.05141 6.47984 0 5.1875 0Z" fill="#266FF2"/>
<path d="M13.6562 8.46875H10.8125C9.52016 8.46875 8.46875 9.52016 8.46875 10.8125V13.6562C8.46875 14.9486 9.52016 16 10.8125 16H13.6562C14.9486 16 16 14.9486 16 13.6562V10.8125C16 9.52016 14.9486 8.46875 13.6562 8.46875Z" fill="#000F5C"/>
<path d="M13.6562 0H10.8125C9.52016 0 8.46875 1.05141 8.46875 2.34375V5.1875C8.46875 6.99678 6.99678 8.46875 5.1875 8.46875H2.34375C1.05141 8.46875 0 9.52016 0 10.8125V13.6562C0 14.9486 1.05141 16 2.34375 16H5.1875C6.47984 16 7.53125 14.9486 7.53125 13.6562V10.8125C7.53125 9.00322 9.00322 7.53125 10.8125 7.53125H13.6562C14.9486 7.53125 16 6.47984 16 5.1875V2.34375C16 1.05141 14.9486 0 13.6562 0Z" fill="#266FF2"/>
</g>
<defs>
<clipPath id="clip0_48_12227">
<rect width="16" height="16" fill="white"/>
</clipPath>
</defs>
</svg>
