<svg width="26" height="26" viewBox="0 0 26 26" fill="none" xmlns="http://www.w3.org/2000/svg">
<g clip-path="url(#clip0_41_287)">
<path d="M16.3622 13.4195C15.8986 13.4195 15.5236 13.0444 15.5236 12.5808V11.0713C15.5236 9.59122 14.3948 8.38712 13.0074 8.38712C11.62 8.38712 10.4912 9.59122 10.4912 11.0713V12.5808C10.4912 13.0444 10.1162 13.4195 9.65261 13.4195C9.18901 13.4195 8.81396 13.0444 8.81396 12.5808V11.0713C8.81396 8.66643 10.6952 6.70984 13.0074 6.70984C15.3196 6.70984 17.2009 8.66643 17.2009 11.0713V12.5808C17.2009 13.0444 16.8258 13.4195 16.3622 13.4195Z" fill="#266FF2"/>
<path d="M23.6887 4.48375C23.5431 4.31506 23.317 4.20924 23.0941 4.19364C19.9392 3.96856 16.9498 2.82662 14.4476 0.892104L13.5204 0.175359C13.2238 -0.0547575 12.8101 -0.0588367 12.5088 0.164801L11.2394 1.10326C8.79857 2.90868 5.90904 3.97744 2.88272 4.19604C2.66077 4.21164 2.45345 4.31578 2.30779 4.48519C2.1619 4.65388 2.08991 4.87439 2.10695 5.09707L2.87769 15.0698C3.01062 16.7848 3.38159 18.3327 3.98028 19.6695C5.78306 23.6926 9.07308 26 13.0079 26C16.9424 26 20.2327 23.6926 22.0345 19.6695C22.6341 18.3327 23.0051 16.7848 23.1378 15.0698L23.9085 5.09707C23.9256 4.87439 23.8346 4.65316 23.6887 4.48375ZM21.4651 14.9405C21.3472 16.463 21.0236 17.8236 20.5036 18.9833C18.9842 22.3765 16.2518 24.3225 13.0076 24.3225C9.76343 24.3225 7.03106 22.3765 5.51095 18.9833C4.99169 17.8236 4.66799 16.463 4.55017 14.9405L3.84254 5.78838C6.88037 5.42389 9.76679 4.27883 12.2369 2.45157L12.9961 1.89056L13.422 2.21905C15.9634 4.18548 18.9621 5.40997 22.1727 5.7891L21.4651 14.9405Z" fill="#000F5C"/>
<path d="M7.97559 12.5808V19.2904C7.97559 19.754 8.35064 20.1291 8.81423 20.1291H17.2011C17.6647 20.1291 18.04 19.754 18.04 19.2904V12.5808C18.04 12.1172 17.6647 11.7419 17.2011 11.7419H8.81423C8.35064 11.7419 7.97559 12.1172 7.97559 12.5808ZM9.65287 13.4195H16.3625V18.4516H9.65287V13.4195Z" fill="#266FF2"/>
<path d="M13.0076 14.2581C12.544 14.2581 12.1689 14.6331 12.1689 15.0967V16.7742C12.1689 17.2378 12.544 17.6129 13.0076 17.6129C13.4712 17.6129 13.8462 17.2378 13.8462 16.7742V15.0967C13.8462 14.6331 13.4712 14.2581 13.0076 14.2581Z" fill="#266FF2"/>
</g>
<defs>
<clipPath id="clip0_41_287">
<rect width="26" height="26" fill="white"/>
</clipPath>
</defs>
</svg>
