<svg width="51" height="62" viewBox="0 0 51 62" fill="none" xmlns="http://www.w3.org/2000/svg">
<path d="M46.9453 24.1397C46.9453 35.9835 37.3439 45.585 25.5 45.585C13.6561 45.585 4.05469 35.9835 4.05469 24.1397C4.05469 12.2958 13.6561 2.5752 25.5 2.5752C37.3439 2.5752 46.9453 12.2958 46.9453 24.1397Z" stroke="#000F5C" stroke-width="3.57422" stroke-miterlimit="10" stroke-linecap="round" stroke-linejoin="round"/>
<path d="M41.8655 37.9994L49.01 54.1937L39.797 51.0654L35.9453 60.0001L29.4316 45.2254" stroke="#000F5C" stroke-width="3.57422" stroke-miterlimit="10" stroke-linecap="round" stroke-linejoin="round"/>
<path d="M21.5682 45.2253L15.0546 60L11.2029 51.0653L1.98987 54.1936L9.13437 37.9993" stroke="#000F5C" stroke-width="3.57422" stroke-miterlimit="10" stroke-linecap="round" stroke-linejoin="round"/>
<path d="M25.5001 13.4169L28.6514 19.8022L35.6979 20.826L30.5991 25.7964L31.8026 32.8145L25.5001 29.5009L19.1974 32.8145L20.4012 25.7964L15.3022 20.826L22.3488 19.8022L25.5001 13.4169Z" stroke="#266FF2" stroke-width="3.57422" stroke-miterlimit="10" stroke-linecap="round" stroke-linejoin="round"/>
</svg>
