<svg width="51" height="51" viewBox="0 0 51 51" fill="none" xmlns="http://www.w3.org/2000/svg">
<path d="M9.96094 37.0625C5.5599 37.0625 1.99219 33.4948 1.99219 29.0938C1.99219 24.6927 5.5599 21.125 9.96094 21.125C12.1614 21.125 13.9453 22.9089 13.9453 25.1094V33.0781C13.9453 35.2786 12.1614 37.0625 9.96094 37.0625Z" stroke="#000F5C" stroke-width="3.98438" stroke-miterlimit="10" stroke-linecap="round" stroke-linejoin="round"/>
<path d="M41.0391 37.0625C38.8386 37.0625 37.0547 35.2786 37.0547 33.0781V25.1094C37.0547 22.9089 38.8386 21.125 41.0391 21.125C45.4401 21.125 49.0078 24.6927 49.0078 29.0938C49.0078 33.4948 45.4401 37.0625 41.0391 37.0625Z" stroke="#000F5C" stroke-width="3.98438" stroke-miterlimit="10" stroke-linecap="round" stroke-linejoin="round"/>
<path d="M41.0391 37.0625V41.0469C41.0391 43.2473 39.2552 45.0312 37.0547 45.0312H29.4844" stroke="#000F5C" stroke-width="3.98438" stroke-miterlimit="10" stroke-linecap="round" stroke-linejoin="round"/>
<path d="M28.3168 47.8484C29.8728 46.2924 29.8728 43.7696 28.3168 42.2137C26.7608 40.6577 24.2381 40.6577 22.6821 42.2137C21.1261 43.7696 21.1261 46.2924 22.6821 47.8484C24.2381 49.4043 26.7608 49.4043 28.3168 47.8484Z" stroke="#000F5C" stroke-width="3.98438" stroke-miterlimit="10" stroke-linecap="round" stroke-linejoin="round"/>
<path d="M10.4631 13.9531C12.2323 7.07918 18.0738 2 25.5001 2C32.9263 2 38.7678 7.07918 40.537 13.9531" stroke="#000F5C" stroke-width="3.98438" stroke-miterlimit="10" stroke-linecap="round" stroke-linejoin="round"/>
</svg>
