<svg width="52" height="52" viewBox="0 0 52 52" fill="none" xmlns="http://www.w3.org/2000/svg">
<path d="M14.1385 43.9368C11.3096 45.5611 8.12101 46.1437 6.23285 46.3527C6.44188 44.4646 7.02444 41.2759 8.64702 38.4454C9.07195 37.7069 8.81665 36.7646 8.07818 36.3397C7.33285 35.913 6.39562 36.1717 5.97241 36.9102C3.06649 41.9784 3.03223 47.7663 3.03223 48.0113C3.03223 48.8629 3.72273 49.5534 4.57428 49.5534C4.8193 49.5534 10.6071 49.5191 15.6754 46.6132C16.4138 46.1883 16.6691 45.2476 16.2442 44.5074C15.8227 43.7689 14.8821 43.5119 14.1385 43.9368Z" fill="#266FF2"/>
<path d="M51.9993 4.32824C52.0182 3.31562 51.6361 2.3664 50.9233 1.65534C50.2123 0.944286 49.1842 0.59304 48.2556 0.584473C43.9858 0.665002 32.4683 1.89008 21.5711 11.6719C19.6282 10.9162 16.7 9.79397 14.4777 10.0801C11.2085 10.4999 6.37846 14.9479 1.64778 19.694C1.02068 20.3228 0.77052 21.2138 0.981268 22.0773C1.1903 22.9443 1.82426 23.6245 2.6741 23.8969L10.1959 26.3128C9.62878 27.3477 9.07021 28.4066 8.53049 29.5237C7.85198 30.9287 8.13983 32.6164 9.24669 33.7198L18.864 43.3371C19.5699 44.0448 20.5157 44.4183 21.4701 44.4183C22.0098 44.4183 22.5546 44.3 23.0618 44.055C24.1789 43.5153 25.2378 42.9567 26.2693 42.3913L28.6869 49.9114C28.9593 50.7613 29.6395 51.3952 30.5082 51.606C30.7087 51.6539 30.9109 51.6779 31.113 51.6779C31.7727 51.6779 32.4084 51.4192 32.8915 50.9377C37.6377 46.2071 42.0856 41.3787 42.5037 38.1113C42.7933 35.8684 41.6676 32.9574 40.912 31.0144C50.692 20.1172 51.9188 8.59974 51.9993 4.32824ZM4.46803 21.236C6.97815 18.7362 12.4302 13.4538 14.8701 13.1402C15.9581 13.0014 17.6663 13.5172 19.109 14.0398C16.5612 16.6733 14.087 19.8293 11.7808 23.5834L4.46803 21.236ZM21.7202 41.2776C21.5026 41.3838 21.2233 41.3359 21.0451 41.1577L11.4261 31.5387C11.2496 31.3622 11.2 31.0846 11.3079 30.8636C23.2863 6.05192 42.6613 3.77653 48.3155 3.6703H48.3292C48.5331 3.6703 48.6668 3.76111 48.7456 3.83992C48.8107 3.90503 48.9221 4.04896 48.9187 4.2717C48.809 9.9259 46.5319 29.301 21.7202 41.2776ZM39.4453 37.7172C39.1317 40.1553 33.8493 45.6091 31.3495 48.1175L28.9987 40.8064C32.7562 38.5002 35.9123 36.0243 38.5458 33.4765C39.0701 34.9175 39.5858 36.6223 39.4453 37.7172Z" fill="#000F5C"/>
<path d="M40.3809 21.3577C42.903 18.8339 42.903 14.7286 40.3809 12.2048C37.9341 9.76149 33.6712 9.76149 31.2279 12.2048C30.0062 13.4264 29.3329 15.0525 29.3329 16.7813C29.3329 18.5101 30.008 20.1361 31.2279 21.3577C32.4496 22.5794 34.0756 23.2528 35.8044 23.2528C37.5332 23.2528 39.1575 22.5794 40.3809 21.3577ZM38.198 19.1766C36.9181 20.4582 34.6855 20.4582 33.4091 19.1766C32.7682 18.5375 32.4153 17.6859 32.4153 16.7813C32.4153 15.8766 32.7682 15.0268 33.4091 14.3859C34.0482 13.7468 34.898 13.3939 35.8027 13.3939C36.7056 13.3939 37.5572 13.7468 38.1963 14.3859C39.519 15.707 39.519 17.8556 38.198 19.1766Z" fill="#266FF2"/>
</svg>
