<svg width="56" height="56" viewBox="0 0 56 56" fill="none" xmlns="http://www.w3.org/2000/svg">
<g clip-path="url(#clip0_134_787)">
<path d="M55.9344 4.18003C55.8131 1.95556 54.044 0.186639 51.8195 0.0652326C47.331 -0.179986 38.5477 0.058561 30.149 4.40261C25.8675 6.61723 21.3394 10.372 17.7258 14.7041C17.6813 14.7575 17.6379 14.8112 17.5938 14.8647L9.39282 15.4982C8.04292 15.6025 6.84056 16.31 6.09396 17.4392L0.498996 25.9018C-0.0672383 26.7582 -0.157254 27.83 0.258043 28.7687C0.673449 29.7076 1.52701 30.3619 2.54146 30.5191L9.45079 31.5892C9.4264 31.7235 9.4019 31.8577 9.37948 31.992C9.14946 33.368 9.60534 34.7826 10.5991 35.7763L20.2232 45.4005C21.0472 46.2244 22.1605 46.6787 23.3013 46.6787C23.5362 46.6787 23.7725 46.6593 24.0076 46.62C24.1419 46.5976 24.2761 46.5731 24.4104 46.5487L25.4806 53.4582C25.6377 54.4726 26.292 55.3263 27.2307 55.7416C27.6213 55.9144 28.0346 55.9997 28.4461 55.9997C29.0239 55.9996 29.5977 55.8314 30.0977 55.5008L38.5603 49.9057C39.6896 49.159 40.397 47.9566 40.5012 46.6068L41.1347 38.406C41.1881 38.3618 41.242 38.3185 41.2953 38.274C45.6276 34.6603 49.3824 30.1322 51.5969 25.8506C55.9412 17.4516 56.1793 8.66823 55.9344 4.18003ZM36.7507 47.1685L28.6557 52.5205L27.6127 45.7868C31.034 44.7809 34.4184 43.1698 37.6426 41.0115L37.23 46.3539C37.2043 46.6872 37.0295 46.9842 36.7507 47.1685ZM22.5434 43.0803L12.9192 33.4561C12.6736 33.2105 12.5601 32.8654 12.6158 32.533C12.9019 30.822 13.3465 29.1933 13.8969 27.659L28.3374 42.0996C26.4947 42.7597 24.8441 43.1534 23.4665 43.3838C23.1336 43.4391 22.789 43.3259 22.5434 43.0803ZM9.64559 18.7697L14.9879 18.357C12.8295 21.5813 11.2184 24.9657 10.2125 28.3869L3.47892 27.344L8.83107 19.249C9.01548 18.97 9.31243 18.7954 9.64559 18.7697ZM39.1938 35.7541C36.5433 37.9649 33.9705 39.5639 31.599 40.721L15.278 24.4C16.7937 21.3042 18.6435 18.7264 20.2454 16.806C23.5896 12.7968 27.7488 9.33826 31.6567 7.31701C39.3647 3.32997 47.4859 3.11526 51.6409 3.34145C52.1908 3.37142 52.6282 3.80881 52.6582 4.35886C52.8847 8.5138 52.6696 16.6349 48.6825 24.3431C46.6614 28.2508 43.2028 32.4099 39.1938 35.7541Z" fill="#000F5C"/>
<path d="M38.3601 25.8384C40.4604 25.8382 42.5614 25.0387 44.1604 23.4397C45.7098 21.8904 46.5629 19.8305 46.5629 17.6395C46.5629 15.4485 45.7097 13.3885 44.1604 11.8392C40.9621 8.64073 35.758 8.64095 32.5599 11.8392C31.0105 13.3885 30.1572 15.4485 30.1572 17.6395C30.1572 19.8305 31.0106 21.8904 32.5599 23.4397C34.1591 25.039 36.2592 25.8386 38.3601 25.8384ZM34.8798 14.1593C35.8393 13.1997 37.0996 12.72 38.3599 12.72C39.6204 12.72 40.8807 13.1997 41.8401 14.1593C42.7697 15.0888 43.2816 16.3248 43.2816 17.6393C43.2816 18.9539 42.7697 20.19 41.8401 21.1195C39.9212 23.0385 36.7987 23.0384 34.8797 21.1195C33.9501 20.19 33.4381 18.954 33.4381 17.6395C33.4381 16.3249 33.9502 15.0888 34.8798 14.1593Z" fill="#266FF2"/>
<path d="M1.67377 46.149C2.09366 46.149 2.51355 45.9888 2.8338 45.6684L8.19023 40.3119C8.83095 39.6712 8.83095 38.6325 8.19023 37.9918C7.54962 37.3511 6.51077 37.3511 5.87005 37.9918L0.513742 43.3482C-0.126977 43.9889 -0.126977 45.0276 0.513742 45.6684C0.833992 45.9887 1.25388 46.149 1.67377 46.149Z" fill="#266FF2"/>
<path d="M13.0988 42.9005C12.4582 42.2597 11.4193 42.2597 10.7786 42.9005L0.480539 53.1987C-0.16018 53.8394 -0.16018 54.8781 0.480539 55.5188C0.800898 55.8392 1.22068 55.9993 1.64057 55.9993C2.06046 55.9993 2.48035 55.8392 2.8006 55.5187L13.0987 45.2206C13.7395 44.5799 13.7395 43.5412 13.0988 42.9005Z" fill="#266FF2"/>
<path d="M15.6875 47.8096L10.3311 53.1661C9.69041 53.8068 9.69041 54.8455 10.3311 55.4862C10.6515 55.8066 11.0714 55.9668 11.4912 55.9668C11.9109 55.9668 12.3309 55.8067 12.6512 55.4862L18.0076 50.1298C18.6483 49.4891 18.6483 48.4504 18.0076 47.8096C17.367 47.1689 16.3282 47.1689 15.6875 47.8096Z" fill="#266FF2"/>
</g>
<defs>
<clipPath id="clip0_134_787">
<rect width="56" height="56" fill="white" transform="translate(0 -0.000488281)"/>
</clipPath>
</defs>
</svg>
