<svg width="56" height="56" viewBox="0 0 56 56" fill="none" xmlns="http://www.w3.org/2000/svg">
<g clip-path="url(#clip0_138_227)">
<path d="M26.0048 -0.000488281C25.4757 -0.000488281 24.9682 0.209699 24.5941 0.583834C24.22 0.957969 24.0098 1.4654 24.0098 1.99451V26.0045C24.0098 27.5965 24.6422 29.1232 25.7679 30.2489C26.8935 31.3746 28.4203 32.007 30.0123 32.007H54.0048C54.2682 32.007 54.5291 31.9548 54.7723 31.8535C55.0155 31.7521 55.2362 31.6036 55.4217 31.4165C55.6071 31.2294 55.7537 31.0074 55.853 30.7633C55.9522 30.5193 56.0021 30.258 55.9998 29.9945C55.9905 22.0422 52.8274 14.4182 47.2042 8.79508C41.5811 3.17193 33.9571 0.00877478 26.0048 -0.000488281ZM30.0123 27.9995C29.7488 28.0018 29.4875 27.9519 29.2434 27.8527C28.9994 27.7535 28.7774 27.6069 28.5903 27.4214C28.4031 27.2359 28.2546 27.0152 28.1533 26.772C28.0519 26.5288 27.9998 26.268 27.9998 26.0045V4.07701C34.1828 4.56233 39.9896 7.23857 44.3752 11.6241C48.7607 16.0096 51.4369 21.8165 51.9223 27.9995H30.0123Z" fill="#266FF2"/>
<path d="M49.2798 36.1194C49.0317 36.0309 48.7685 35.9924 48.5054 36.0062C48.2424 36.0199 47.9846 36.0857 47.7471 36.1996C47.5095 36.3134 47.2969 36.4732 47.1214 36.6698C46.946 36.8663 46.8112 37.0956 46.7248 37.3444C45.1634 41.8464 42.1713 45.7136 38.2055 48.3553C34.2398 50.997 29.5183 52.2681 24.7623 51.9744C19.3264 51.6371 14.2052 49.3094 10.3768 45.4357C6.54829 41.562 4.28079 36.4139 4.00732 30.9744C3.78197 26.2615 5.08651 21.602 7.72629 17.6912C10.3661 13.7804 14.1996 10.828 18.6548 9.27444C18.903 9.18711 19.1316 9.05175 19.3275 8.87609C19.5234 8.70042 19.6827 8.4879 19.7965 8.25064C19.9102 8.01339 19.9761 7.75605 19.9904 7.49333C20.0047 7.2306 19.9671 6.96764 19.8798 6.71944C19.7925 6.47124 19.6571 6.24267 19.4815 6.04679C19.3058 5.8509 19.0933 5.69153 18.856 5.57778C18.6188 5.46403 18.3614 5.39812 18.0987 5.38382C17.836 5.36952 17.573 5.40711 17.3248 5.49444C12.0667 7.3244 7.54004 10.8032 4.4184 15.4131C1.29675 20.0231 -0.252984 25.5178 -0.000184828 31.0794C0.312504 37.5164 2.98219 43.6134 7.50028 48.2089C12.0184 52.8045 18.0691 55.5774 24.4998 55.9994H25.9698C31.351 56.0302 36.6068 54.3762 41.0005 51.2692C45.3942 48.1623 48.7054 43.7582 50.4698 38.6744C50.6503 38.1778 50.6263 37.6298 50.4032 37.1508C50.1801 36.6718 49.7761 36.3009 49.2798 36.1194Z" fill="#000F5C"/>
</g>
<defs>
<clipPath id="clip0_138_227">
<rect width="56" height="56" fill="white" transform="translate(0 -0.000488281)"/>
</clipPath>
</defs>
</svg>
