<svg width="69" height="57" viewBox="0 0 69 57" fill="none" xmlns="http://www.w3.org/2000/svg">
<path d="M51.5984 56.3811H16.4473C15.1663 56.3828 13.9217 55.9553 12.9121 55.1667C11.9026 54.3782 11.1863 53.2741 10.8777 52.0308L5.4597 30.3647C5.29002 29.685 5.29919 28.9729 5.48632 28.2978C5.67344 27.6226 6.03216 27.0074 6.52754 26.512C7.02293 26.0167 7.63812 25.6579 8.31325 25.4708C8.98838 25.2837 9.70046 25.2745 10.3802 25.4442L19.0327 27.6077C19.2174 27.6538 19.4115 27.6458 19.5917 27.5847C19.772 27.5236 19.9309 27.412 20.0496 27.2631L29.5398 15.401C30.0952 14.7561 30.7832 14.2386 31.5568 13.8839C32.3304 13.5291 33.1714 13.3454 34.0225 13.3452C34.8736 13.3451 35.7147 13.5285 36.4885 13.883C37.2622 14.2375 37.9504 14.7547 38.506 15.3994L47.9962 27.2647C48.1166 27.4122 48.2762 27.5227 48.4567 27.5834C48.6371 27.6441 48.8311 27.6525 49.0161 27.6078L57.6641 25.4443C58.3437 25.2744 59.0558 25.2833 59.731 25.4702C60.4062 25.6572 61.0215 26.0157 61.517 26.5109C62.0126 27.0061 62.3715 27.6212 62.5588 28.2963C62.7461 28.9714 62.7555 29.6834 62.5861 30.3632L57.168 52.0324C56.8591 53.2754 56.1427 54.3791 55.1332 55.1673C54.1237 55.9555 52.8792 56.3828 51.5984 56.3811ZM10.3446 30.3291L15.483 50.8795C15.5362 51.095 15.6601 51.2864 15.8349 51.4231C16.0097 51.5599 16.2254 51.634 16.4473 51.6337H51.5984C51.8202 51.634 52.0356 51.5601 52.2104 51.4237C52.3852 51.2873 52.5093 51.0962 52.5628 50.8811L57.7012 30.3291L50.1659 32.2129C49.0994 32.4778 47.9794 32.4319 46.9383 32.0806C45.8971 31.7292 44.9782 31.0871 44.2904 30.2302L34.8002 18.3649C34.281 17.7189 33.7648 17.7174 33.2455 18.3664L23.7554 30.2287C23.0681 31.0855 22.1499 31.7277 21.1093 32.0794C20.0687 32.431 18.9491 32.4773 17.883 32.2129L10.3446 30.3291Z" fill="#000F5C"/>
<path d="M4.7474 22.9455C7.36931 22.9455 9.49479 20.82 9.49479 18.1981C9.49479 15.5762 7.36931 13.4507 4.7474 13.4507C2.12548 13.4507 0 15.5762 0 18.1981C0 20.82 2.12548 22.9455 4.7474 22.9455Z" fill="#266FF2"/>
<path d="M63.2987 22.9455C65.9206 22.9455 68.0461 20.82 68.0461 18.1981C68.0461 15.5762 65.9206 13.4507 63.2987 13.4507C60.6768 13.4507 58.5513 15.5762 58.5513 18.1981C58.5513 20.82 60.6768 22.9455 63.2987 22.9455Z" fill="#266FF2"/>
<path d="M34.0233 9.4943C36.6452 9.4943 38.7707 7.36882 38.7707 4.74691C38.7707 2.12499 36.6452 -0.000488281 34.0233 -0.000488281C31.4014 -0.000488281 29.2759 2.12499 29.2759 4.74691C29.2759 7.36882 31.4014 9.4943 34.0233 9.4943Z" fill="#266FF2"/>
</svg>
