<svg width="56" height="56" viewBox="0 0 56 56" fill="none" xmlns="http://www.w3.org/2000/svg">
<g clip-path="url(#clip0_138_332)">
<path d="M52.4365 27.3757C45.6696 13.8417 45.8774 14.2539 45.8342 14.1775C45.5356 13.649 44.9788 13.3435 44.4066 13.3435C44.1689 13.3435 11.5737 13.3393 11.4456 13.3509C10.8919 13.3997 10.3986 13.7298 10.1394 14.2258C10.1351 14.2341 10.1302 14.242 10.126 14.2503L3.56342 27.3755C3.55817 27.3859 3.55379 27.3967 3.54887 27.4072C3.54493 27.4152 3.54056 27.4231 3.53684 27.4313C3.5341 27.4372 3.53213 27.4434 3.52951 27.4493C3.5294 27.4495 3.52929 27.4497 3.52929 27.4499C3.28134 28.0143 3.36632 28.6826 3.78096 29.1709C3.7861 29.1772 3.79081 29.1836 3.79617 29.1896L26.7652 55.4401C26.768 55.4431 26.771 55.4458 26.7738 55.4488C27.4183 56.1742 28.5657 56.192 29.2261 55.4488C29.2288 55.4458 29.2319 55.4431 29.2346 55.4401L52.2037 29.1896C52.2049 29.1883 52.206 29.1869 52.2071 29.1855C52.6262 28.7035 52.7426 27.9878 52.4365 27.3757ZM41.7519 16.6247L37.5636 25.0012L31.2812 16.6247H41.7519ZM34.5626 26.4687H21.4374L28 17.7186L34.5626 26.4687ZM24.7187 16.6247L18.4363 25.0011L14.2481 16.6247H24.7187ZM11.5935 18.6528L15.5016 26.4687H7.68554L11.5935 18.6528ZM8.64651 29.75H17.0191L23.2985 46.4952L8.64651 29.75ZM28 49.6872L20.5235 29.75H35.4764L28 49.6872ZM32.7015 46.4953L38.9809 29.7501H47.3534L32.7015 46.4953ZM40.4986 26.4687L44.4066 18.6528L48.3146 26.4687H40.4986Z" fill="#000F5C"/>
<path d="M28 -0.000488281C27.0939 -0.000488281 26.3594 0.734074 26.3594 1.64014V6.56212C26.3594 7.46818 27.0939 8.20275 28 8.20275C28.9061 8.20275 29.6406 7.46818 29.6406 6.56212V1.64014C29.6406 0.734074 28.9061 -0.000488281 28 -0.000488281Z" fill="#266FF2"/>
<path d="M22.5976 7.04296L19.3163 3.76171C18.6757 3.1211 17.6369 3.1211 16.9962 3.76171C16.3554 4.40243 16.3554 5.44116 16.9962 6.08188L20.2774 9.36313C20.9181 10.0038 21.9569 10.0038 22.5976 9.36313C23.2383 8.72241 23.2383 7.68368 22.5976 7.04296Z" fill="#266FF2"/>
<path d="M39.0043 3.76171C38.3637 3.1211 37.3249 3.1211 36.6842 3.76171L33.4029 7.04296C32.7622 7.68368 32.7622 8.72241 33.4029 9.36313C34.0436 10.0038 35.0825 10.0037 35.7231 9.36313L39.0043 6.08188C39.645 5.44116 39.645 4.40243 39.0043 3.76171Z" fill="#266FF2"/>
</g>
<defs>
<clipPath id="clip0_138_332">
<rect width="56" height="56" fill="white" transform="translate(0 -0.000488281)"/>
</clipPath>
</defs>
</svg>
